<svg xmlns="http://www.w3.org/2000/svg" viewBox="0 0 500 500"><rect width="500" height="500" rx="110.27491" fill="#2d9952"/><line x1="205.37758" y1="329.53029" x2="163.37758" y2="408.53029" fill="#1d1d1b" stroke="#1d1d1b" stroke-miterlimit="10" stroke-width="5"/><line x1="334.37758" y1="90.53029" x2="292.37758" y2="168.53029" fill="#1d1d1b" stroke="#1d1d1b" stroke-miterlimit="10" stroke-width="5"/><path d="M281.90479,311.84277H251.08447L245.2251,329.4209H226.53369l31.75781-85.3125h16.28907l31.93359,85.3125H287.82275Zm-26.07422-14.23828h21.32812L266.436,265.6709Z" transform="translate(-170.8042 -47.18182)" fill="#1d1d1b" stroke="#1d1d1b" stroke-miterlimit="10"/><path d="M341.97314,289.82129a38.36846,38.36846,0,0,0-5.07812-.39063q-8.00831,0-10.498,5.41993V329.4209H312.28564v-52.832h13.33008l.39063,6.29883q4.248-7.27515,11.76758-7.2754a14.79678,14.79678,0,0,1,4.39453.63477Z" transform="translate(-170.8042 -47.18182)" fill="#1d1d1b" stroke="#1d1d1b" stroke-miterlimit="10"/><path d="M369.09619,263.60059v12.98828h9.0332v10.35156h-9.0332v26.36719a6.293,6.293,0,0,0,1.12305,4.19922q1.12279,1.27,4.29687,1.26953a22.448,22.448,0,0,0,4.15039-.3418v10.69336a29.07248,29.07248,0,0,1-8.54492,1.26953q-14.844,0-15.13672-14.99023v-28.4668H347.27V276.58887h7.71484V263.60059Z" transform="translate(-170.8042 -47.18182)" fill="#1d1d1b" stroke="#1d1d1b" stroke-miterlimit="10"/><path d="M453.63281,304.81152l11.48438-60.70312h17.51953l-18.92578,85.3125H446.01562l-13.88671-57.07031L418.24219,329.4209H400.54736l-18.92578-85.3125h17.51953l11.54248,60.58594,14.0625-60.58594h14.88282Z" transform="translate(-170.8042 -47.18182)" fill="#1d1d1b" stroke="#1d1d1b" stroke-miterlimit="10"/><path d="M515.14746,329.4209a15.65518,15.65518,0,0,1-1.416-4.73633,17.0744,17.0744,0,0,1-13.33008,5.71289,18.756,18.756,0,0,1-12.86621-4.49219,14.44405,14.44405,0,0,1-5.10254-11.32812q0-8.39794,6.22558-12.89063,6.22558-4.49194,17.99317-4.541h6.49414v-3.02735a8.70784,8.70784,0,0,0-1.87989-5.85937q-1.88085-2.19726-5.93261-2.19727a8.40674,8.40674,0,0,0-5.59082,1.709,5.80455,5.80455,0,0,0-2.02637,4.6875H483.60449a14.17212,14.17212,0,0,1,2.832-8.4961,18.718,18.718,0,0,1,8.00782-6.12793,29.18564,29.18564,0,0,1,11.62109-2.22168q9.76466,0,15.50293,4.90723,5.73633,4.90724,5.7373,13.794v22.90039q.04835,7.52051,2.09961,11.377v.83008Zm-11.66992-9.81445a12.15445,12.15445,0,0,0,5.76172-1.39161,9.14188,9.14188,0,0,0,3.90625-3.73535v-9.082h-5.27344q-10.59668,0-11.2793,7.32422l-.04882.83008a5.64723,5.64723,0,0,0,1.85546,4.3457A7.20477,7.20477,0,0,0,503.47754,319.60645Z" transform="translate(-170.8042 -47.18182)" fill="#1d1d1b" stroke="#1d1d1b" stroke-miterlimit="10"/><path d="M554.03809,329.4209H539.87793v-75h14.16016Z" transform="translate(-170.8042 -47.18182)" fill="#1d1d1b" stroke="#1d1d1b" stroke-miterlimit="10"/><path d="M585.84863,308.22949l-5.07812,5.07813V329.4209H566.65918v-75h14.11133v41.55273l2.73437-3.51562,13.52539-15.86914h16.94336l-19.09179,22.02148,20.75195,30.81055H599.42285Z" transform="translate(-170.8042 -47.18182)" fill="#1d1d1b" stroke="#1d1d1b" stroke-miterlimit="10"/><line x1="55" y1="300.5" x2="444" y2="300.5" fill="#1d1d1b" stroke="#1d1d1b" stroke-miterlimit="10" stroke-width="5"/></svg>